<svg id="Layer_1" data-name="Layer 1" xmlns="http://www.w3.org/2000/svg" viewBox="0 0 768 512"><defs><style>.cls-1{fill:#211f1f;}</style></defs><title>Artboard 1</title><path class="cls-1" d="M384.63,155.76h31.24V230.6h.56c8.49-14.17,26.3-23,42.2-23,44.66,0,66.32,35.16,66.32,78,0,39.4-19.18,76.54-61.12,76.54-19.18,0-39.73-4.81-49.06-24.1h-.54v20.14h-29.6V155.77Zm69.88,77.39c-26.3,0-39.73,20.7-39.73,51.89,0,29.47,14.53,51.6,39.73,51.6,28.51,0,39.2-26.09,39.2-51.6,0-26.65-13.45-51.89-39.2-51.89"/><path class="cls-1" d="M640.17,260.66c-2.47-17.86-15.08-27.5-32.34-27.5-16.18,0-38.92,8.79-38.92,53.3,0,24.38,10.41,50.19,37.55,50.19,18.08,0,30.68-12.49,33.71-33.47H671.4c-5.75,38-28.49,59-64.94,59-44.4,0-68.79-32.6-68.79-75.69,0-44.22,23.29-78.81,69.88-78.81,32.89,0,60.85,17,63.85,53H640.17Z"/><polygon class="cls-1" points="275.41 357.75 41.1 357.75 150.52 155.76 384.84 155.76 275.41 357.75"/></svg>