<svg id="Layer_1" data-name="Layer 1" xmlns="http://www.w3.org/2000/svg" viewBox="0 0 35.18 856.22"><defs><style>.cls-1{fill:#ee3424;}.cls-2{fill:#010101;}</style></defs><title>Artboard 1</title><path class="cls-1" d="M16.89,863.44,16.24,29.93c-.06-3.51-2.8-6.51-5.65-9.1C6,16.67,2.69,16.71,1,13.07a9.42,9.42,0,0,1,.83-9.13,9.48,9.48,0,0,1,7-3.76,9.17,9.17,0,0,1,6.64,2.67,9.12,9.12,0,0,1,2.14,4.93C19,16.2,18,21.21,19,28.34V32c0,3.07.6,828.2.6,831.28"/><path class="cls-1" d="M19,29.93c.06-3.51,2.8-6.51,5.66-9.1,4.59-4.16,7.89-4.12,9.55-7.76a9.43,9.43,0,0,0-.84-9.13,9.48,9.48,0,0,0-7-3.76,9.15,9.15,0,0,0-6.63,2.67A9,9,0,0,0,17.6,7.78c-1.31,8.42-.35,13.43-1.31,20.56h0"/><path class="cls-2" d="M14.89,30.18A17.59,17.59,0,0,0,2.77,18.34C2.77,23,5,27.21,8.71,29.13A10.65,10.65,0,0,0,14.89,30.18Z"/><path class="cls-2" d="M20.12,30.25A17.71,17.71,0,0,1,32.24,18.31c0,.49.29,6.3-4.34,9.81A11.31,11.31,0,0,1,20.12,30.25Z"/><path class="cls-2" d="M20.09,31.62A10.6,10.6,0,0,1,30,34.38a6.57,6.57,0,0,1-3.5,1.2C22.54,35.7,20.18,31.79,20.09,31.62Z"/></svg>