<svg id="Layer_1" data-name="Layer 1" xmlns="http://www.w3.org/2000/svg" viewBox="0 0 80.58 81"><defs><style>.cls-1{fill:#ee3424;}.cls-2{fill:#010101;}</style></defs><title>Artboard 1</title><path class="cls-1" d="M37.08,81.12,37,70.22,36.83,68c-.13-8-6.38-14.85-12.89-20.75C13.47,37.79,6,37.89,2.17,29.59A21.45,21.45,0,0,1,4.06,8.78C9.79.69,19.38.22,20.06.2,21,.17,29.45,0,35.19,6.28a20.61,20.61,0,0,1,4.88,11.25c3,19.19.8,30.62,3,46.88h0c0,2.77.13,3.08.17,5.85,0,.8,0,4.71.05,10.87"/><path class="cls-1" d="M43,68c.13-8,6.38-14.85,12.89-20.75,10.47-9.49,18-9.39,21.77-17.69a21.45,21.45,0,0,0-1.9-20.81C70.08.69,60.49.22,59.81.2c-.89,0-9.39-.17-15.13,6.08a20.61,20.61,0,0,0-4.87,11.25c-3,19.19-.8,30.62-3,46.88h0"/><path class="cls-2" d="M33.78,68.61a40.3,40.3,0,0,0-8.63-15.25,40.69,40.69,0,0,0-19-11.74c0,10.69,5.14,20.22,13.54,24.6A24.36,24.36,0,0,0,33.78,68.61Z"/><path class="cls-2" d="M45.68,68.77A40.36,40.36,0,0,1,73.31,41.54c.07,1.11.66,14.37-9.9,22.36A25.82,25.82,0,0,1,45.68,68.77Z"/><path class="cls-2" d="M45.6,71.88a24.22,24.22,0,0,1,22.68,6.31,15,15,0,0,1-8,2.72C51.2,81.18,45.82,72.27,45.6,71.88Z"/></svg>