<?xml version="1.0" standalone="no"?>
<!DOCTYPE svg PUBLIC "-//W3C//DTD SVG 20010904//EN"
 "http://www.w3.org/TR/2001/REC-SVG-20010904/DTD/svg10.dtd">
<svg version="1.0" xmlns="http://www.w3.org/2000/svg"
 width="1071.000000pt" height="1071.000000pt" viewBox="0 0 1071.000000 1071.000000"
 preserveAspectRatio="xMidYMid meet">
<metadata>
Created by potrace 1.11, written by Peter Selinger 2001-2013
</metadata>
<g transform="translate(0.000000,1071.000000) scale(0.100000,-0.100000)"
fill="#000000" stroke="none">
<path d="M2734 10480 c-243 -26 -517 -91 -732 -176 -532 -209 -1028 -608
-1282 -1031 -201 -335 -320 -669 -376 -1058 -27 -185 -25 -573 5 -764 91 -591
333 -1061 715 -1387 180 -154 365 -278 764 -511 798 -467 1178 -748 1769
-1310 633 -603 1000 -1088 1221 -1613 65 -155 104 -293 145 -505 20 -106 21
-144 24 -1117 l4 -1008 399 0 399 0 4 1013 c3 912 5 1021 20 1107 69 372 202
691 442 1060 207 319 514 669 944 1078 578 549 950 823 1774 1308 543 320 775
496 976 743 324 396 523 1051 496 1631 -20 432 -106 765 -299 1150 -107 214
-175 314 -341 500 -400 450 -978 763 -1595 864 -208 34 -318 40 -489 27 -371
-29 -665 -106 -988 -261 -312 -150 -627 -383 -784 -583 -302 -381 -480 -799
-557 -1307 l-8 -55 -13 90 c-55 385 -207 776 -434 1114 -151 226 -311 379
-579 557 -349 232 -729 374 -1148 428 -148 19 -373 27 -476 16z"/>
<path d="M9450 5151 c-553 -182 -1038 -436 -1510 -790 -353 -264 -751 -666
-1025 -1035 -321 -434 -574 -920 -749 -1440 -26 -76 -45 -141 -42 -144 14 -13
229 -23 399 -17 273 9 470 35 707 95 573 145 1081 426 1461 811 530 535 843
1239 934 2094 15 145 21 485 8 484 -5 0 -87 -26 -183 -58z"/>
<path d="M1070 5087 c0 -63 7 -185 15 -273 123 -1288 824 -2357 1846 -2814
258 -116 588 -208 886 -246 204 -27 717 -23 763 6 10 6 3 36 -34 144 -164 483
-383 913 -674 1325 -640 906 -1562 1579 -2626 1920 -88 28 -163 51 -168 51 -4
0 -8 -51 -8 -113z"/>
<path d="M6520 1409 c-107 -11 -316 -46 -370 -62 l-41 -12 70 -103 c242 -356
586 -666 943 -848 249 -127 467 -183 740 -191 210 -6 318 5 503 52 198 51 378
129 549 238 l79 51 -72 67 c-485 455 -1126 741 -1810 809 -121 12 -469 11
-591 -1z"/>
</g>
</svg>
