<?xml version="1.0" standalone="no"?>
<!DOCTYPE svg PUBLIC "-//W3C//DTD SVG 20010904//EN"
 "http://www.w3.org/TR/2001/REC-SVG-20010904/DTD/svg10.dtd">
<svg version="1.0" xmlns="http://www.w3.org/2000/svg"
 width="297.000000pt" height="297.000000pt" viewBox="0 0 297.000000 297.000000"
 preserveAspectRatio="xMidYMid meet">
<metadata>
Created by potrace 1.11, written by Peter Selinger 2001-2013
</metadata>
<g transform="translate(0.000000,297.000000) scale(0.100000,-0.100000)"
fill="#000000" stroke="none">
<path d="M672 2944 c-284 -51 -502 -222 -591 -465 -22 -60 -41 -131 -47 -169
-5 -42 -5 -203 1 -235 40 -208 114 -331 265 -441 30 -22 121 -79 201 -126 201
-119 326 -215 487 -373 148 -146 241 -263 296 -372 76 -151 84 -202 88 -551
l3 -213 115 3 115 3 -2 270 c-2 305 4 350 63 468 19 39 58 105 87 146 68 100
327 359 448 449 88 65 282 192 293 192 10 0 143 85 186 119 76 60 80 64 119
116 91 122 134 272 130 453 -3 125 -29 229 -86 339 -39 77 -57 101 -131 176
-131 135 -349 224 -532 218 -244 -7 -451 -110 -574 -285 -53 -75 -74 -120
-102 -216 -12 -41 -24 -68 -27 -60 -3 8 -10 35 -17 59 -31 116 -119 257 -205
331 -154 131 -390 198 -583 164z"/>
<path d="M245 1353 c13 -182 60 -337 145 -480 124 -209 298 -346 516 -404 77
-21 305 -38 337 -26 14 5 10 23 -28 122 -44 115 -160 310 -242 404 -171 199
-395 351 -647 440 l-87 31 6 -87z"/>
<path d="M2665 1428 c-216 -68 -429 -195 -590 -354 -117 -114 -218 -252 -290
-393 -35 -69 -98 -232 -92 -238 9 -8 127 -9 185 -2 273 34 487 152 636 350 83
111 161 303 180 442 11 83 16 196 8 200 -4 2 -20 0 -37 -5z"/>
<path d="M1878 355 c-2 -1 -34 -5 -73 -9 -74 -6 -115 -15 -115 -24 0 -26 143
-176 210 -221 117 -79 195 -103 322 -100 109 2 174 20 276 78 l24 13 -24 25
c-63 68 -213 156 -328 192 -83 26 -110 31 -190 37 -36 3 -73 6 -82 8 -9 2 -18
3 -20 1z"/>
</g>
</svg>
